<svg width="100" height="100" viewBox="0 0 100 100" fill="none" xmlns="http://www.w3.org/2000/svg">
<path d="M67.1875 30.4688V25.7812C67.1875 25.3516 66.8359 25 66.4062 25H28.9062C28.4766 25 28.125 25.3516 28.125 25.7812V30.4688C28.125 30.8984 28.4766 31.25 28.9062 31.25H66.4062C66.8359 31.25 67.1875 30.8984 67.1875 30.4688ZM28.9062 39.0625C28.4766 39.0625 28.125 39.4141 28.125 39.8438V44.5312C28.125 44.9609 28.4766 45.3125 28.9062 45.3125H46.875C47.3047 45.3125 47.6562 44.9609 47.6562 44.5312V39.8438C47.6562 39.4141 47.3047 39.0625 46.875 39.0625H28.9062ZM65.625 50.3906C53.9746 50.3906 44.5312 59.834 44.5312 71.4844C44.5312 83.1348 53.9746 92.5781 65.625 92.5781C77.2754 92.5781 86.7188 83.1348 86.7188 71.4844C86.7188 59.834 77.2754 50.3906 65.625 50.3906ZM76.123 81.9824C73.3203 84.7852 69.5898 86.3281 65.625 86.3281C61.6602 86.3281 57.9297 84.7852 55.127 81.9824C52.3242 79.1797 50.7812 75.4492 50.7812 71.4844C50.7812 67.5195 52.3242 63.7891 55.127 60.9863C57.9297 58.1836 61.6602 56.6406 65.625 56.6406C69.5898 56.6406 73.3203 58.1836 76.123 60.9863C78.9258 63.7891 80.4688 67.5195 80.4688 71.4844C80.4688 75.4492 78.9258 79.1797 76.123 81.9824ZM74.3164 64.0625H69.9902C69.7363 64.0625 69.502 64.1797 69.3555 64.3848L63.1543 72.959L60.8984 69.8438C60.8262 69.7431 60.7308 69.6613 60.6203 69.6052C60.5099 69.5492 60.3876 69.5204 60.2637 69.5215H55.957C55.3223 69.5215 54.9512 70.2441 55.3223 70.7617L62.5293 80.7324C62.8418 81.1621 63.4766 81.1621 63.7891 80.7324L74.9414 65.3027C75.3223 64.7852 74.9512 64.0625 74.3164 64.0625ZM42.9688 83.2031H20.3125V14.4531H75V48.0469C75 48.4766 75.3516 48.8281 75.7812 48.8281H81.25C81.6797 48.8281 82.0312 48.4766 82.0312 48.0469V10.5469C82.0312 8.81836 80.6348 7.42188 78.9062 7.42188H16.4062C14.6777 7.42188 13.2812 8.81836 13.2812 10.5469V87.1094C13.2812 88.8379 14.6777 90.2344 16.4062 90.2344H42.9688C43.3984 90.2344 43.75 89.8828 43.75 89.4531V83.9844C43.75 83.5547 43.3984 83.2031 42.9688 83.2031Z" fill="black" fill-opacity="0.87"/>
</svg>
